<?xml version="1.0" encoding="UTF-8"?><svg id="Layer_1" xmlns="http://www.w3.org/2000/svg" viewBox="0 0 35.72 23.03"><defs><style>.cls-1{fill:#f8b472;}</style></defs><g><path class="cls-1" d="M28.18,19.65l-6.68-.83s-4.38-.94-1.99-5.23c0,0,1.52-2.95,4.86-5.04,0,0,2.87-1.96,4.99,1.75,0,0,3.02,5.34,2.12,7.4,0,0-.03,.1-.11,.25-.59,1.18-1.88,1.85-3.19,1.69Z"/><path class="cls-1" d="M20.99,8.1s.44,1.72-1.53,1.86c0,0-2.28-.35-2.69-2.83,0,0-.51-2.52,2.11-2.25,0,0,1.75,.42,2.11,3.22Z"/><path class="cls-1" d="M32.14,12.66s-2.11-.96-.49-3.92c0,0,1.7-2.12,3.38-.5,0,0,1.7,1.7-.24,3.89,0,0-1.58,1.33-2.65,.53Z"/><path class="cls-1" d="M29.83,7.99s-2.66,1.14-2.35-2.56c0,0,.39-3.39,2.88-3.35,0,0,2.94,.15,1.42,4.26,0,0-.33,1.11-1.95,1.65Z"/><path class="cls-1" d="M24.09,6.8s-1.93,1.11-2.77-2.2c0,0-.68-2.96,1.04-4.37,0,0,2.26-1.21,3.13,1.98,0,0,.99,4.07-1.4,4.59Z"/></g><g><path class="cls-1" d="M5.96,23.01l5.13-.73s3.36-.79,1.46-4.06c0,0-1.22-2.25-3.82-3.81,0,0-2.24-1.47-3.82,1.42,0,0-2.25,4.16-1.52,5.73,0,0,.03,.08,.09,.19,.47,.9,1.47,1.4,2.48,1.25Z"/><path class="cls-1" d="M11.33,14s-.31,1.33,1.21,1.41c0,0,1.75-.3,2.03-2.22,0,0,.35-1.95-1.66-1.7,0,0-1.34,.35-1.58,2.51Z"/><path class="cls-1" d="M2.8,17.68s1.61-.77,.32-3.03c0,0-1.34-1.61-2.61-.33,0,0-1.29,1.33,.25,2.99,0,0,1.24,1,2.05,.37Z"/><path class="cls-1" d="M4.51,14.05s2.07,.84,1.77-2.01c0,0-.35-2.61-2.27-2.54,0,0-2.27,.16-1.03,3.31,0,0,.27,.85,1.52,1.24Z"/><path class="cls-1" d="M8.92,13.04s1.51,.82,2.1-1.74c0,0,.48-2.29-.87-3.35,0,0-1.76-.9-2.38,1.58,0,0-.7,3.15,1.15,3.52Z"/></g></svg>