<svg width="16" height="20" viewBox="0 0 16 20" fill="none" xmlns="http://www.w3.org/2000/svg">
<path d="M15.34 14C15.2856 13.8785 15.2113 13.7669 15.12 13.67L10.49 9C10.2987 8.83617 10.0526 8.75057 9.80095 8.76029C9.54927 8.77001 9.31053 8.87434 9.13244 9.05244C8.95434 9.23053 8.85001 9.46927 8.84029 9.72095C8.83057 9.97262 8.91617 10.2187 9.08 10.41L12 13.33H5C4.20435 13.33 3.44129 13.0139 2.87868 12.4513C2.31607 11.8887 2 11.1256 2 10.33V1C2 0.734784 1.89464 0.48043 1.70711 0.292893C1.51957 0.105357 1.26522 0 1 0C0.734784 0 0.48043 0.105357 0.292893 0.292893C0.105357 0.48043 0 0.734784 0 1V10.37C0 11.6961 0.526784 12.9679 1.46447 13.9055C2.40215 14.8432 3.67392 15.37 5 15.37H12L9.08 18.29C8.98627 18.383 8.91188 18.4936 8.86111 18.6154C8.81034 18.7373 8.7842 18.868 8.7842 19C8.7842 19.132 8.81034 19.2627 8.86111 19.3846C8.91188 19.5064 8.98627 19.617 9.08 19.71C9.17344 19.8027 9.28426 19.876 9.40609 19.9258C9.52793 19.9755 9.65839 20.0008 9.79 20C10.0523 19.9989 10.3037 19.8947 10.49 19.71L15.12 15.08C15.2146 14.9858 15.2894 14.8736 15.34 14.75C15.4373 14.5095 15.4373 14.2405 15.34 14Z" fill="#777777"/>
</svg>
