<svg width="48" height="48" viewBox="0 0 48 48" fill="none" xmlns="http://www.w3.org/2000/svg">
<rect x="0.5" y="0.5" width="47" height="47" rx="23.5" fill="white" stroke="#E5E5E5"/>
<path fill-rule="evenodd" clip-rule="evenodd" d="M35.52 24.2729C35.52 23.422 35.4436 22.6038 35.3018 21.8184H24V26.4602H30.4582C30.18 27.9602 29.3345 29.2311 28.0636 30.082V33.0929H31.9418C34.2109 31.0038 35.52 27.9274 35.52 24.2729Z" fill="#4285F4"/>
<path fill-rule="evenodd" clip-rule="evenodd" d="M24 35.9993C27.24 35.9993 29.9563 34.9247 31.9418 33.092L28.0636 30.0811C26.9891 30.8011 25.6145 31.2266 24 31.2266C20.8745 31.2266 18.2291 29.1157 17.2855 26.2793H13.2764V29.3884C15.2509 33.3102 19.3091 35.9993 24 35.9993Z" fill="#34A853"/>
<path fill-rule="evenodd" clip-rule="evenodd" d="M17.2854 26.2804C17.0454 25.5604 16.9091 24.7913 16.9091 24.0004C16.9091 23.2095 17.0454 22.4404 17.2854 21.7204V18.6113H13.2764C12.4636 20.2313 12 22.0641 12 24.0004C12 25.9368 12.4636 27.7695 13.2764 29.3895L17.2854 26.2804Z" fill="#FBBC05"/>
<path fill-rule="evenodd" clip-rule="evenodd" d="M23.9999 16.7727C25.7617 16.7727 27.3435 17.3782 28.5871 18.5673L32.0289 15.1255C29.9508 13.1891 27.2344 12 23.9999 12C19.309 12 15.2508 14.6891 13.2762 18.6109L17.2853 21.72C18.229 18.8836 20.8744 16.7727 23.9999 16.7727Z" fill="#EA4335"/>
</svg>
