<svg width="48" height="48" viewBox="0 0 48 48" fill="none" xmlns="http://www.w3.org/2000/svg">
<rect width="48" height="48" rx="24" fill="#FEE500"/>
<path d="M23.9914 13C17.3533 13 12 17.2471 12 22.4031C12 25.7498 14.227 28.6803 17.5675 30.3537L16.4368 34.5414C16.4155 34.6041 16.4122 34.6715 16.4274 34.736C16.4425 34.8005 16.4754 34.8596 16.5225 34.9066C16.5911 34.9666 16.6794 34.9998 16.7709 35C16.8467 34.994 16.9187 34.9642 16.9764 34.9151L21.8415 31.6618C22.5597 31.7601 23.2836 31.8111 24.0086 31.8147C30.6381 31.8147 36 27.5676 36 22.4031C36 17.2386 30.621 13 23.9914 13Z" fill="black"/>
</svg>
