<?xml version="1.0" encoding="UTF-8"?><svg id="__copy_3" xmlns="http://www.w3.org/2000/svg" viewBox="0 0 236.46 57.42"><defs><style>.cls-1{fill:#ffb670;}.cls-2{fill:#4f4f4f;}.cls-3{fill:#292929;}</style></defs><g><path class="cls-2" d="M168.87,8.27c-.78,0-1.42,.64-1.42,1.42v29.41c0,.78,.64,1.42,1.42,1.42h47.8c.78,0,1.42-.64,1.42-1.42V9.7c0-.79-.64-1.42-1.42-1.42h-47.8Zm45.88,29.07h-44.04V11.36h44.04v25.99Z"/><g><g><path class="cls-1" d="M203.09,32.54l-6.68-.83s-4.38-.94-1.99-5.23c0,0,1.52-2.95,4.86-5.04,0,0,2.87-1.96,4.99,1.75,0,0,3.02,5.34,2.12,7.4,0,0-.03,.1-.11,.25-.59,1.18-1.88,1.85-3.19,1.69Z"/><path class="cls-1" d="M195.9,20.98s.44,1.72-1.53,1.86c0,0-2.28-.35-2.69-2.83,0,0-.51-2.52,2.11-2.25,0,0,1.75,.42,2.11,3.22Z"/><path class="cls-1" d="M207.05,25.54s-2.11-.96-.49-3.92c0,0,1.7-2.12,3.38-.5,0,0,1.7,1.7-.24,3.89,0,0-1.58,1.33-2.65,.53Z"/><path class="cls-1" d="M204.74,20.87s-2.66,1.14-2.35-2.56c0,0,.39-3.39,2.88-3.35,0,0,2.94,.15,1.42,4.26,0,0-.33,1.11-1.95,1.65Z"/><path class="cls-1" d="M199,19.68s-1.93,1.11-2.77-2.2c0,0-.68-2.96,1.04-4.37,0,0,2.26-1.21,3.13,1.98,0,0,.99,4.07-1.4,4.59Z"/></g><g><path class="cls-1" d="M180.87,35.89l5.13-.73s3.36-.79,1.46-4.06c0,0-1.22-2.25-3.82-3.81,0,0-2.24-1.47-3.82,1.42,0,0-2.25,4.16-1.52,5.73,0,0,.03,.08,.09,.19,.47,.9,1.47,1.4,2.48,1.25Z"/><path class="cls-1" d="M186.24,26.88s-.31,1.33,1.21,1.41c0,0,1.75-.3,2.03-2.22,0,0,.35-1.95-1.66-1.7,0,0-1.34,.35-1.58,2.51Z"/><path class="cls-1" d="M177.71,30.56s1.61-.77,.32-3.03c0,0-1.34-1.61-2.61-.33,0,0-1.29,1.33,.25,2.99,0,0,1.24,1,2.05,.37Z"/><path class="cls-1" d="M179.42,26.93s2.07,.84,1.77-2.01c0,0-.35-2.61-2.27-2.54,0,0-2.27,.16-1.03,3.31,0,0,.27,.85,1.52,1.24Z"/><path class="cls-1" d="M183.83,25.93s1.51,.82,2.1-1.74c0,0,.48-2.29-.87-3.35,0,0-1.76-.9-2.38,1.58,0,0-.7,3.15,1.15,3.52Z"/></g></g><path class="cls-2" d="M217.59,41.18h-49.63c-.33,0-.65,.13-.9,.37l-5,4.7c-1.03,.97-.44,2.9,.9,2.9h59.63c1.34,0,1.93-1.93,.9-2.9l-5-4.7c-.25-.24-.57-.37-.9-.37Z"/></g><g><path class="cls-3" d="M2.11,40.38c2.02-2.29,4.01-4.57,5.96-6.84,1.95-2.27,3.79-4.55,5.52-6.84,.97-1.26,1.45-2.9,1.45-4.93v-6.42H3.43v-4.05H19.54v10.34c0,1.41-.15,2.68-.46,3.83-.31,1.14-.8,2.14-1.47,2.99-1.85,2.44-3.83,4.86-5.94,7.26-2.11,2.41-4.25,4.83-6.42,7.26l-3.12-2.6Zm35.95,7.44h-4.58V27.53h-5.5v19.18h-4.53V9.79h4.53v13.6h5.5V9.35h4.58V47.81Z"/><path class="cls-3" d="M63.8,27.61h-21.38V9.93h4.58v4.93h12.23v-4.93h4.58V27.61Zm11.79,20.33h-29.66v-10.65h24.2v-2.6h-24.24v-4.05h28.82v10.6h-24.2v2.64h25.08v4.05Zm-16.37-24.2v-5.1h-12.23v5.1h12.23Zm15.49,5.19h-4.58V9.35h4.58v7.52h5.15v4.14h-5.15v7.92Z"/><path class="cls-3" d="M103,41.17h-20.15V10.85h4.58v10.43h11V10.85h4.58v30.32Zm-4.58-4.05v-11.88h-11v11.88h11Zm15.97,10.74h-4.58V9.35h4.58v14.7h5.5v4.14h-5.5v19.67Z"/><path class="cls-3" d="M147.44,29.11h-24.73V10.37h21.38v4.05h-16.81v10.65h20.15v4.05Zm7.35,18.83h-4.58v-10.43h-24.64v-4.05h29.22v14.48Zm0-16.41h-4.58V9.35h4.58v8.36h5.15v4.14h-5.15v9.68Z"/></g></svg>