<?xml version="1.0" encoding="UTF-8"?><svg id="Layer_1" xmlns="http://www.w3.org/2000/svg" width="40" height="72"  viewBox="0 0 23.83 43.58">
<defs><style>.cls-1{fill:#fdc613;}.cls-2{fill:#fff;}.cls-3{fill:#c7341d;opacity:.73;}.cls-4{fill:#e84729;}.cls-5{fill:#f7a42b;}.cls-6{opacity:.14;}.cls-7{fill:#ea9f25;}.cls-8{fill:#ffec4e;}.cls-9{opacity:.17;}</style></defs><g><polygon class="cls-4" points="23.66 0 17.66 17.74 17.07 19.49 6.76 19.49 7.35 17.74 12.51 2.5 13.35 0 23.66 0"/><polygon class="cls-1" points="21.24 0 14.65 19.49 15.6 19.49 22.19 0 21.24 0"/><polygon class="cls-1" points="14.82 0 8.23 19.49 9.18 19.49 15.77 0 14.82 0"/><path class="cls-5" d="M11.92,29.88c-1.7,0-3.08-2.24-3.08-4.99s1.38-4.84,3.08-4.84,3.08,2.09,3.08,4.84-1.38,4.99-3.08,4.99Zm0-8.76c-1.2,0-2.17,1.66-2.17,3.77s.97,3.84,2.17,3.84,2.17-1.72,2.17-3.84-.97-3.77-2.17-3.77Z"/><path class="cls-5" d="M17.16,21.11H6.67c-.54,0-.98-.44-.98-.98v-1.69c0-.54,.44-.98,.98-.98h10.49c.54,0,.98,.44,.98,.98v1.69c0,.54-.44,.98-.98,.98Zm-10.4-1.07h10.31v-1.51H6.76v1.51Z"/><polygon class="cls-3" points="17.07 19.49 7.94 19.49 7.35 17.74 12.51 2.5 17.07 19.49"/><polygon class="cls-4" points="10.48 0 17.07 19.49 6.76 19.49 .17 0 10.48 0"/><polygon class="cls-1" points="2.59 0 9.18 19.49 8.23 19.49 1.64 0 2.59 0"/><polygon class="cls-1" points="9.02 0 15.6 19.49 14.65 19.49 8.06 0 9.02 0"/></g><g><path class="cls-8" d="M22.37,32.49c0,5.77-4.68,10.45-10.45,10.45-2.26,0-4.35-.72-6.06-1.93-.84-.6-1.58-1.31-2.21-2.13-.38-.49-.71-1.01-1-1.56-.38-.72-.67-1.5-.87-2.31-.2-.81-.31-1.65-.31-2.53,0-4.86,3.32-8.95,7.82-10.11,.78-.2,1.6-.32,2.44-.33,.06,0,.13,0,.19,0,.56,0,1.12,.04,1.66,.13,1.03,.16,2.01,.48,2.92,.92,3.48,1.7,5.87,5.27,5.87,9.39Z"/><circle class="cls-1" cx="11.92" cy="32.49" r="8.71"/><circle class="cls-7" cx="12.32" cy="32.88" r="7.58"/><circle class="cls-8" cx="11.92" cy="32.49" r="7.58"/><g class="cls-9"><path class="cls-2" d="M11.73,22.05L2.65,37.33c-.38-.72-.67-1.5-.87-2.31l7.51-12.64c.78-.2,1.6-.32,2.44-.33Z"/></g><g class="cls-6"><path class="cls-2" d="M16.5,23.1L5.86,41.01c-.84-.6-1.58-1.31-2.21-2.13L13.57,22.18c1.03,.16,2.01,.48,2.92,.92Z"/></g></g></svg>