<svg width="900" height="600" viewBox="0 0 900 600" fill="none" xmlns="http://www.w3.org/2000/svg"><path fill="transparent" d="M0 0h900v600H0z"/><path d="M624.782 362.488c3.403 62.7-119.18 190.192-270.272 143.003-70.271-21.949-64.319-58.379-117.753-106.392-31.85-28.616-77.612-50.255-90.34-91.851-10.995-35.903-4.252-74.494 14.81-99.595 42.87-56.45 129.418-95.105 214.695-6.163 85.277 88.942 240.066-.709 248.86 160.998z" fill="url(#a)"/><circle cx="349.29" cy="378.307" r="53.505" fill="#8B5B2E"/><circle cx="273.168" cy="336.385" r="53.505" fill="#8B5B2E"/><circle cx="195.288" cy="254.142" r="112.423" fill="#8B5B2E"/><circle r="103.506" transform="matrix(-1 0 0 1 683.918 357.703)" fill="#8B5B2E"/><circle cx="290.76" cy="289.247" r="58.115" fill="#8B5B2E"/><circle cx="255.556" cy="161.423" r="112.423" fill="#8B5B2E"/><circle r="112.423" transform="matrix(-1 0 0 1 675.782 177)" fill="#8B5B2E"/><circle cx="369.844" cy="300.031" r="58.115" fill="#8B5B2E"/><circle cx="408.543" cy="182.284" r="112.423" fill="#8B5B2E"/><circle r="112.423" transform="matrix(-1 0 0 1 522.862 202.654)" fill="#8B5B2E"/><circle cx="418.792" cy="325.353" r="53.505" fill="#8B5B2E"/><circle cx="501.263" cy="230.962" r="112.423" fill="#8B5B2E"/><circle r="112.423" transform="matrix(-1 0 0 1 573.931 300.418)" fill="#8B5B2E"/><path fill-rule="evenodd" clip-rule="evenodd" d="m516.977 542.227-47.476-67.389 47.476 67.389z" fill="#fff"/><path d="m516.977 542.227-47.476-67.389" stroke="#E1E4E5" stroke-width="10" stroke-linecap="round" stroke-linejoin="round"/><path fill-rule="evenodd" clip-rule="evenodd" d="M450.051 456.401c-4.836 4.837-4.836 12.678 0 17.515 4.837 4.837 12.679 4.837 17.515 0 4.837-4.837 4.837-12.678 0-17.515-4.836-4.837-12.678-4.837-17.515 0z" fill="#fff"/><path d="M450.051 456.401c-4.836 4.837-4.836 12.678 0 17.515 4.837 4.837 12.679 4.837 17.515 0 4.837-4.837 4.837-12.678 0-17.515-4.836-4.837-12.678-4.837-17.515 0" stroke="#E1E4E5" stroke-width="10" stroke-linecap="round" stroke-linejoin="round"/><path fill-rule="evenodd" clip-rule="evenodd" d="m395.222 369.889-20.049 48.409c-2.212 5.345.325 11.476 5.67 13.698l8.887 3.678c10.69 4.434 22.952-.649 27.386-11.34l12.031-29.051c4.433-10.69-.65-22.953-11.34-27.386l-8.887-3.678a10.471 10.471 0 0 0-13.698 5.67zm21.906 54.445 12.031-29.052c2.211-5.345 8.343-7.892 13.698-5.67l87.135 36.095c5.345 2.211 7.891 8.342 5.67 13.698l-12.032 29.052c-2.211 5.345-8.343 7.892-13.698 5.67l-87.145-36.095c-5.345-2.222-7.881-8.353-5.659-13.698z" fill="#FFB673"/><path fill-rule="evenodd" clip-rule="evenodd" d="m523.629 468.446 12.032-29.051 19.368 8.017c5.345 2.212 7.891 8.343 5.67 13.698l-4.014 9.684c-2.212 5.345-8.343 7.892-13.698 5.67l-19.358-8.018z" fill="#FFB673"/><path fill-rule="evenodd" clip-rule="evenodd" d="m397.831 542.227 50.307-67.389-50.307 67.389z" fill="#fff"/><path d="m397.831 542.227 50.307-67.389" stroke="#E1E4E5" stroke-width="10" stroke-linecap="round" stroke-linejoin="round"/><path d="M247.749 236.545h.088c.523 8.071 6.025 8.196 6.025 8.196s-6.068.129-6.068 9.455c0-9.326-6.067-9.455-6.067-9.455s5.5-.125 6.022-8.196zm72.812 52.954h.088c.522 8.071 6.025 8.196 6.025 8.196s-6.068.129-6.068 9.455c0-9.326-6.067-9.455-6.067-9.455s5.5-.125 6.022-8.196zm53.501 11.032h.097c.569 8.071 6.572 8.196 6.572 8.196s-6.619.129-6.619 9.455c0-9.326-6.62-9.455-6.62-9.455s6.001-.125 6.57-8.196zm-22.08 55.16h.128c.76 10.762 8.763 10.928 8.763 10.928s-8.826.172-8.826 12.607c0-12.435-8.825-12.607-8.825-12.607s8-.166 8.76-10.928zm72.28-43.025h.088c.523 7.567 6.025 7.684 6.025 7.684s-6.068.121-6.068 8.864c0-8.743-6.067-8.864-6.067-8.864s5.5-.117 6.022-7.684zm67.843-17.651h.097c.569 7.567 6.572 7.683 6.572 7.683s-6.619.122-6.619 8.865c0-8.743-6.62-8.865-6.62-8.865s6.001-.116 6.57-7.683zm76.121-16.548h.097c.569 7.567 6.572 7.683 6.572 7.683s-6.619.121-6.619 8.865c0-8.744-6.619-8.865-6.619-8.865s6-.116 6.569-7.683zm-39.732 61.638h.129c.759 10.762 8.763 10.928 8.763 10.928s-8.826.172-8.826 12.607c0-12.435-8.825-12.607-8.825-12.607s8-.166 8.759-10.928zm76.122-3.168h.128c.76 10.762 8.763 10.927 8.763 10.927s-8.825.173-8.825 12.608c0-12.435-8.826-12.608-8.826-12.608s8-.165 8.76-10.927zm38.612 41.922h.129c.759 10.761 8.763 10.927 8.763 10.927s-8.826.172-8.826 12.608c0-12.436-8.826-12.608-8.826-12.608s8.001-.166 8.76-10.927zm91.566-38.613h.128c.76 10.762 8.764 10.928 8.764 10.928s-8.826.172-8.826 12.607c0-12.435-8.826-12.607-8.826-12.607s8.001-.166 8.76-10.928zm-38.612 69.361h.128c.76 10.762 8.763 10.928 8.763 10.928s-8.825.172-8.825 12.607c0-12.435-8.826-12.607-8.826-12.607s8-.166 8.76-10.928zM514.169 246.474h.097c.569 7.567 6.572 7.683 6.572 7.683s-6.619.121-6.619 8.865c0-8.744-6.62-8.865-6.62-8.865s6.001-.116 6.57-7.683zm105.361-8.826h.088c.522 7.567 6.025 7.684 6.025 7.684s-6.068.121-6.068 8.864c0-8.743-6.068-8.864-6.068-8.864s5.501-.117 6.023-7.684zm65.62-17.651h.128c.76 10.762 8.764 10.927 8.764 10.927s-8.826.173-8.826 12.608c0-12.435-8.826-12.608-8.826-12.608s8.001-.165 8.76-10.927zm-3.309 120.249h.128c.759 10.762 8.763 10.928 8.763 10.928s-8.826.172-8.826 12.607c0-12.435-8.825-12.607-8.825-12.607s8-.166 8.76-10.928zm-38.588-212.918h.08c.475 6.726 5.477 6.829 5.477 6.829s-5.516.108-5.516 7.88c0-7.772-5.516-7.88-5.516-7.88s5-.103 5.475-6.829zm33.071 25.232h.129c.759 10.762 8.763 10.928 8.763 10.928s-8.826.172-8.826 12.607c0-12.435-8.825-12.607-8.825-12.607s8-.166 8.759-10.928zm49.661-25.742h.096c.57 8.072 6.573 8.196 6.573 8.196s-6.62.129-6.62 9.456c0-9.327-6.619-9.456-6.619-9.456s6-.124 6.57-8.196zm8.842 74.651h.064c.38 5.381 4.382 5.464 4.382 5.464s-4.413.086-4.413 6.303c0-6.217-4.413-6.303-4.413-6.303s4-.083 4.38-5.464zM122.54 248.68h.08c.475 6.726 5.477 6.83 5.477 6.83s-5.516.108-5.516 7.879c0-7.771-5.516-7.879-5.516-7.879s5-.104 5.475-6.83zm33.096 29.646h.08c.475 6.726 5.477 6.829 5.477 6.829s-5.516.108-5.516 7.88c0-7.772-5.516-7.88-5.516-7.88s5-.103 5.475-6.829zm52.406-9.788h.072c.427 6.054 4.929 6.147 4.929 6.147s-4.964.097-4.964 7.091c0-6.994-4.964-7.091-4.964-7.091s4.5-.093 4.927-6.147zm60.693 28.683h.04c.238 4.036 2.739 4.098 2.739 4.098s-2.758.065-2.758 4.728c0-4.663-2.758-4.728-2.758-4.728s2.5-.062 2.737-4.098zM508.34 149.392h.092c.543 7.687 6.259 7.805 6.259 7.805s-6.304.123-6.304 9.005c0-8.882-6.304-9.005-6.304-9.005s5.715-.118 6.257-7.805zm26.005 43.34h.091c.543 7.687 6.26 7.805 6.26 7.805s-6.304.123-6.304 9.006c0-8.883-6.304-9.006-6.304-9.006s5.714-.118 6.257-7.805zm96.925-34.672h.091c.543 7.687 6.26 7.805 6.26 7.805s-6.304.123-6.304 9.005c0-8.882-6.304-9.005-6.304-9.005s5.714-.118 6.257-7.805zm-57.525 43.239h.092c.542 7.687 6.259 7.805 6.259 7.805s-6.304.124-6.304 9.006c0-8.882-6.304-9.006-6.304-9.006s5.715-.118 6.257-7.805zm-369.56-95.668h.064c.38 5.381 4.382 5.464 4.382 5.464s-4.413.086-4.413 6.304c0-6.218-4.413-6.304-4.413-6.304s4-.083 4.38-5.464zm19.841 61.412h.096c.57 7.567 6.573 7.683 6.573 7.683s-6.619.122-6.619 8.865c0-8.743-6.62-8.865-6.62-8.865s6.001-.116 6.57-7.683zm-75.557 13.974h.072c.427 6.053 4.929 6.147 4.929 6.147s-4.964.097-4.964 7.091c0-6.994-4.964-7.091-4.964-7.091s4.5-.094 4.927-6.147zm53.485 22.432h.112c.665 10.089 7.668 10.244 7.668 10.244s-7.723.162-7.723 11.82c0-11.658-7.722-11.82-7.722-11.82s7-.155 7.665-10.244zm261.452-84.947h.128c.759 10.762 8.763 10.927 8.763 10.927s-8.826.173-8.826 12.608c0-12.435-8.825-12.608-8.825-12.608s8-.165 8.76-10.927zm-176.481-11.909h.064c.38 5.381 4.382 5.464 4.382 5.464s-4.413.086-4.413 6.304c0-6.218-4.413-6.304-4.413-6.304s4.001-.083 4.38-5.464zm-20.977 91.34h.096c.57 7.567 6.573 7.683 6.573 7.683s-6.62.121-6.62 8.865c0-8.744-6.619-8.865-6.619-8.865s6-.116 6.57-7.683z" fill="#fff"/><path d="M400.405 151.046v-14.157m-7.079 7.079h14.158m65.273 64.813v-14.158m-7.079 7.079h14.158M298.45 261.735v-14.158m-7.079 7.079h14.158m-108.574 67.755v-14.158m-7.079 7.079h14.158m114.274 28.04v-14.158m-7.079 7.079h14.158m299.612-27.12v-14.158m-7.079 7.079h14.158m80.075 9.285v-14.158m-7.079 7.079h14.158m-74.375-93.313V196.83m-7.079 7.079h14.158m-208.965 72.168v-14.158m-7.079 7.079h14.157M179.304 164.653v-14.158m-7.079 7.079h14.158m386.765-.644v-14.157m-7.079 7.078h14.158" stroke="#fff" stroke-width="4" stroke-linecap="round" stroke-linejoin="round"/><path fill-rule="evenodd" clip-rule="evenodd" d="M423.554 204.092c-17.698 5.664-38.226 2.124-52.384-12.034-17.697-17.697-19.113-46.013-4.955-65.834-29.024 2.832-51.676 26.9-51.676 56.632 0 31.147 25.484 56.631 56.631 56.631 23.36 0 43.889-14.866 52.384-35.395z" fill="#fff"/><path d="M802.732 275.967c-9.646 4.785-22.449-1.368-22.449-1.368s2.845-13.908 12.497-18.686c9.646-4.785 22.444 1.361 22.444 1.361s-2.846 13.908-12.492 18.693z" fill="url(#b)"/><path d="M200.162 474.368c16.083 9.639 39.157.728 39.157.728s-3.017-24.535-19.11-34.164c-16.083-9.639-39.147-.739-39.147-.739s3.017 24.536 19.1 34.175z" fill="url(#c)"/><circle cx="723.438" cy="186.172" r="12.061" transform="rotate(180 723.438 186.172)" fill="#FFB673"/><circle cx="271.844" cy="437.659" r="13.569" transform="rotate(180 271.844 437.659)" fill="#FFB673"/><circle r="8" transform="matrix(-1 0 0 1 153 227)" fill="#FFB673"/><circle r="5.277" transform="matrix(-1 0 0 1 565.83 242.925)" fill="#FFB673"/><circle r="5.277" transform="matrix(-1 0 0 1 667.325 279.331)" fill="#FFB673"/><circle r="5.277" transform="matrix(-1 0 0 1 568.037 332.285)" fill="#FFB673"/><circle r="5.277" transform="matrix(-1 0 0 1 370.563 271.608)" fill="#FFB673"/><circle r="5.277" transform="matrix(-1 0 0 1 271.274 345.523)" fill="#FFB673"/><circle r="5.277" transform="matrix(-1 0 0 1 235.972 285.95)" fill="#FFB673"/><circle r="6.784" transform="matrix(-1 0 0 1 800.115 433.081)" fill="#E1E4E5"/><circle r="9.8" transform="matrix(-1 0 0 1 176.237 398.545)" fill="#E1E4E5"/><circle r="7.458" transform="matrix(-1 0 0 1 289.565 148.153)" fill="#E1E4E5"/><circle r="6.5" transform="matrix(-1 0 0 1 678.5 102.5)" fill="#E1E4E5"/><circle r="7.446" transform="scale(1 -1) rotate(-75 -59.411 -251.288)" fill="#E1E4E5"/><circle r="9.906" transform="matrix(-1 0 0 1 391.119 97.898)" fill="#E1E4E5"/><ellipse rx="7.62" ry="6.096" transform="matrix(-1 0 0 1 678.494 487.553)" fill="#E1E4E5"/><circle r="13.581" transform="matrix(0 1 1 0 580.753 64.787)" fill="#E1E4E5"/><path d="M820.182 319.286h.199C821.562 336.01 834 336.268 834 336.268s-13.716.268-13.716 19.593c0-19.325-13.716-19.593-13.716-19.593s12.434-.258 13.614-16.982zM257.621 75.477h.2c1.187 17.152 13.693 17.416 13.693 17.416s-13.79.274-13.79 20.093c0-19.819-13.79-20.093-13.79-20.093s12.5-.264 13.687-17.416z" fill="#E1E4E5"/><defs><linearGradient id="a" x1="478.269" y1="738.321" x2="248.971" y2="-296.193" gradientUnits="userSpaceOnUse"><stop stop-color="#fff"/><stop offset="1" stop-color="#EEE"/></linearGradient><linearGradient id="b" x1="765.689" y1="290.893" x2="845.252" y2="227.958" gradientUnits="userSpaceOnUse"><stop stop-color="#fff"/><stop offset="1" stop-color="#EEE"/></linearGradient><linearGradient id="c" x1="262.399" y1="505.396" x2="132.989" y2="385.157" gradientUnits="userSpaceOnUse"><stop stop-color="#fff"/><stop offset="1" stop-color="#EEE"/></linearGradient></defs></svg>