<svg width="10" height="14" viewBox="0 0 10 14" fill="none" xmlns="http://www.w3.org/2000/svg">
<path d="M7.66683 0.333984H2.3335C1.80307 0.333984 1.29436 0.544698 0.919288 0.919771C0.544215 1.29484 0.333501 1.80355 0.333501 2.33398V13.0007C0.333035 13.1181 0.363618 13.2336 0.422153 13.3355C0.480689 13.4373 0.565098 13.5219 0.666835 13.5807C0.768181 13.6392 0.883144 13.67 1.00017 13.67C1.11719 13.67 1.23216 13.6392 1.3335 13.5807L5.00017 11.4607L8.66683 13.5807C8.76844 13.6382 8.88338 13.6681 9.00017 13.6673C9.11695 13.6681 9.2319 13.6382 9.3335 13.5807C9.43524 13.5219 9.51965 13.4373 9.57818 13.3355C9.63672 13.2336 9.6673 13.1181 9.66683 13.0007V2.33398C9.66683 1.80355 9.45612 1.29484 9.08105 0.919771C8.70598 0.544698 8.19727 0.333984 7.66683 0.333984ZM8.3335 11.8473L5.3335 10.114C5.23216 10.0555 5.11719 10.0247 5.00017 10.0247C4.88314 10.0247 4.76818 10.0555 4.66683 10.114L1.66683 11.8473V2.33398C1.66683 2.15717 1.73707 1.9876 1.8621 1.86258C1.98712 1.73756 2.15669 1.66732 2.3335 1.66732H7.66683C7.84365 1.66732 8.01322 1.73756 8.13824 1.86258C8.26326 1.9876 8.3335 2.15717 8.3335 2.33398V11.8473Z" fill="#777777"/>
</svg>
