<svg width="20" height="25" viewBox="0 0 19 28" fill="none" xmlns="http://www.w3.org/2000/svg">
<path d="M15.3332 0.666016H4.66651C3.60565 0.666016 2.58823 1.08744 1.83809 1.83759C1.08794 2.58773 0.666514 3.60515 0.666514 4.66602V25.9993C0.665582 26.2343 0.726747 26.4653 0.843818 26.669C0.960889 26.8727 1.12971 27.0419 1.33318 27.1594C1.53587 27.2764 1.7658 27.338 1.99985 27.338C2.2339 27.338 2.46382 27.2764 2.66651 27.1594L9.99985 22.9193L17.3332 27.1594C17.5364 27.2745 17.7663 27.3343 17.9998 27.3327C18.2334 27.3343 18.4633 27.2745 18.6665 27.1594C18.87 27.0419 19.0388 26.8727 19.1559 26.669C19.2729 26.4653 19.3341 26.2343 19.3332 25.9993V4.66602C19.3332 3.60515 18.9118 2.58773 18.1616 1.83759C17.4115 1.08744 16.394 0.666016 15.3332 0.666016ZM16.6665 23.6927L10.6665 20.226C10.4638 20.109 10.2339 20.0474 9.99985 20.0474C9.7658 20.0474 9.53587 20.109 9.33318 20.226L3.33318 23.6927V4.66602C3.33318 4.31239 3.47366 3.97326 3.72371 3.72321C3.97375 3.47316 4.31289 3.33268 4.66651 3.33268H15.3332C15.6868 3.33268 16.0259 3.47316 16.276 3.72321C16.526 3.97326 16.6665 4.31239 16.6665 4.66602V23.6927Z" fill="#777777"/>
</svg>
