<svg width="16" height="16" viewBox="0 0 16 16" fill="none" xmlns="http://www.w3.org/2000/svg">
<path d="M8.66683 7.33398H4.66683C4.49002 7.33398 4.32045 7.40422 4.19542 7.52925C4.0704 7.65427 4.00016 7.82384 4.00016 8.00065C4.00016 8.17746 4.0704 8.34703 4.19542 8.47206C4.32045 8.59708 4.49002 8.66732 4.66683 8.66732H8.66683C8.84364 8.66732 9.01321 8.59708 9.13823 8.47206C9.26326 8.34703 9.3335 8.17746 9.3335 8.00065C9.3335 7.82384 9.26326 7.65427 9.13823 7.52925C9.01321 7.40422 8.84364 7.33398 8.66683 7.33398ZM11.3335 4.66732H4.66683C4.49002 4.66732 4.32045 4.73756 4.19542 4.86258C4.0704 4.9876 4.00016 5.15717 4.00016 5.33398C4.00016 5.5108 4.0704 5.68036 4.19542 5.80539C4.32045 5.93041 4.49002 6.00065 4.66683 6.00065H11.3335C11.5103 6.00065 11.6799 5.93041 11.8049 5.80539C11.9299 5.68036 12.0002 5.5108 12.0002 5.33398C12.0002 5.15717 11.9299 4.9876 11.8049 4.86258C11.6799 4.73756 11.5103 4.66732 11.3335 4.66732ZM12.6668 1.33398H3.3335C2.80306 1.33398 2.29436 1.5447 1.91928 1.91977C1.54421 2.29484 1.3335 2.80355 1.3335 3.33398V10.0007C1.3335 10.5311 1.54421 11.0398 1.91928 11.4149C2.29436 11.7899 2.80306 12.0007 3.3335 12.0007H11.0602L13.5268 14.474C13.5891 14.5358 13.663 14.5847 13.7442 14.6178C13.8254 14.651 13.9124 14.6678 14.0002 14.6673C14.0876 14.6696 14.1744 14.6513 14.2535 14.614C14.3752 14.564 14.4795 14.479 14.553 14.3699C14.6266 14.2607 14.6662 14.1323 14.6668 14.0007V3.33398C14.6668 2.80355 14.4561 2.29484 14.081 1.91977C13.706 1.5447 13.1973 1.33398 12.6668 1.33398ZM13.3335 12.394L11.8068 10.8607C11.7445 10.7989 11.6707 10.75 11.5894 10.7168C11.5082 10.6836 11.4212 10.6668 11.3335 10.6673H3.3335C3.15668 10.6673 2.98712 10.5971 2.86209 10.4721C2.73707 10.347 2.66683 10.1775 2.66683 10.0007V3.33398C2.66683 3.15717 2.73707 2.9876 2.86209 2.86258C2.98712 2.73756 3.15668 2.66732 3.3335 2.66732H12.6668C12.8436 2.66732 13.0132 2.73756 13.1382 2.86258C13.2633 2.9876 13.3335 3.15717 13.3335 3.33398V12.394Z" fill="#777777"/>
</svg>



