<svg width="11" height="7" viewBox="0 0 11 7" fill="none" xmlns="http://www.w3.org/2000/svg">
<path d="M4.57507 1.06952L0.408406 5.23618C0.330708 5.31388 0.269074 5.40612 0.227024 5.50764C0.184973 5.60916 0.16333 5.71797 0.16333 5.82785C0.16333 6.04977 0.251487 6.2626 0.408406 6.41952C0.486105 6.49722 0.578347 6.55885 0.679865 6.6009C0.781384 6.64295 0.890191 6.66459 1.00007 6.66459C1.22199 6.66459 1.43482 6.57644 1.59174 6.41952L5.16674 2.83618L8.74174 6.41952C8.81921 6.49762 8.91138 6.55962 9.01293 6.60193C9.11448 6.64423 9.2234 6.66602 9.33341 6.66602C9.44342 6.66602 9.55234 6.64423 9.65389 6.60193C9.75544 6.55962 9.8476 6.49762 9.92507 6.41952C10.0032 6.34205 10.0652 6.24988 10.1075 6.14833C10.1498 6.04678 10.1716 5.93786 10.1716 5.82785C10.1716 5.71784 10.1498 5.60892 10.1075 5.50737C10.0652 5.40582 10.0032 5.31365 9.92507 5.23618L5.75841 1.06952C5.68094 0.99141 5.58877 0.929414 5.48722 0.887107C5.38567 0.844799 5.27675 0.823018 5.16674 0.823018C5.05673 0.823018 4.94781 0.844799 4.84626 0.887107C4.74471 0.929414 4.65254 0.99141 4.57507 1.06952Z" fill="#777777"/>
</svg>
