<?xml version="1.0" encoding="utf-8"?>
<!-- Generator: Adobe Illustrator 25.4.1, SVG Export Plug-In . SVG Version: 6.00 Build 0)  -->
<svg version="1.1" id="레이어_1" xmlns="http://www.w3.org/2000/svg" xmlns:xlink="http://www.w3.org/1999/xlink" x="0px"
	 y="0px" viewBox="0 0 113 113" style="enable-background:new 0 0 113 113;" xml:space="preserve">
<path d="M22.5,113c0,0-6.8,0-6.8-6.8c0-6.8,6.8-27.2,40.8-27.2c34,0,40.8,20.4,40.8,27.2c0,6.8-6.8,6.8-6.8,6.8H22.5z M56.5,72.2
	c5.4,0,10.6-2.2,14.4-6c3.8-3.8,6-9,6-14.4s-2.2-10.6-6-14.4c-3.8-3.8-9-6-14.4-6s-10.6,2.2-14.4,6c-3.8,3.8-6,9-6,14.4
	s2.2,10.6,6,14.4S51.1,72.2,56.5,72.2z"/>
</svg>
