<svg width="100" height="32" viewBox="0 0 100 32" fill="none" xmlns="http://www.w3.org/2000/svg">
<path d="M12.25 11.5H13.75H25.75" stroke="#FF0000" strokeWidth="1.5" stroke-linecap="round" stroke-linejoin="round"/>
<path d="M16 11.5V10C16 9.60218 16.158 9.22064 16.4393 8.93934C16.7206 8.65804 17.1022 8.5 17.5 8.5H20.5C20.8978 8.5 21.2794 8.65804 21.5607 8.93934C21.842 9.22064 22 9.60218 22 10V11.5M24.25 11.5V22C24.25 22.3978 24.092 22.7794 23.8107 23.0607C23.5294 23.342 23.1478 23.5 22.75 23.5H15.25C14.8522 23.5 14.4706 23.342 14.1893 23.0607C13.908 22.7794 13.75 22.3978 13.75 22V11.5H24.25Z" stroke="#FF0000" strokeWidth="1.5" stroke-linecap="round" stroke-linejoin="round"/>
<path d="M20.5 15.25V19.75" stroke="#FF0000" strokeWidth="1.5" stroke-linecap="round" stroke-linejoin="round"/>
<path d="M17.5 15.25V19.75" stroke="#FF0000" strokeWidth="1.5" stroke-linecap="round" stroke-linejoin="round"/>
<path d="M39.0023 15.528H37.1423C37.5023 14.568 37.6583 13.548 37.6583 12.492H33.5063V13.296H36.6863C36.5063 15.552 35.3543 17.484 33.0503 18.864L33.6263 19.572C35.1143 18.684 36.1463 17.568 36.7943 16.32H39.0023V21.348H39.9383V11.412H39.0023V15.528ZM41.2463 11.124V21.888H42.1823V11.124H41.2463ZM47.8934 12.06H46.9214V13.992C46.9214 16.032 45.6134 18.096 44.0294 18.852L44.6294 19.656C45.8894 19.008 46.9214 17.664 47.4134 16.044C47.9294 17.58 48.9614 18.852 50.1854 19.452L50.7734 18.66C49.1774 17.94 47.8934 15.96 47.8934 13.992V12.06ZM51.9014 11.124V21.912H52.8854V11.124H51.9014ZM57.2765 19.716H63.6605V17.004H56.2685V17.784H62.6765V18.972H56.3045V21.756H63.9245V20.976H57.2765V19.716ZM63.3845 15.132C63.6245 13.92 63.6245 12.996 63.6245 12.264V11.58H56.3645V12.372H62.6525C62.6525 13.08 62.6405 13.944 62.4005 15.132H55.1165V15.924H64.8845V15.132H63.3845ZM72.3955 16.188C70.8475 15.648 69.7795 14.304 69.7795 12.852V11.664H68.7955V12.78C68.7955 14.388 67.7515 15.816 66.1315 16.392L66.6235 17.184C67.8955 16.716 68.8435 15.744 69.2995 14.52C69.7675 15.636 70.7035 16.524 71.9035 16.968L72.3955 16.188ZM67.4995 18.984H73.5235V21.9H74.5075V18.192H67.4995V18.984ZM76.1035 13.968H74.5075V11.136H73.5235V17.652H74.5075V14.784H76.1035V13.968ZM80.3506 13.188H82.2706V12.384H77.3626V13.188H79.4026V14.16C79.4026 16.14 78.5626 18.096 77.0626 18.996L77.6626 19.728C78.7306 19.056 79.5106 17.796 79.8826 16.32C80.2546 17.688 80.9986 18.84 82.0426 19.464L82.6426 18.744C81.1546 17.904 80.3506 16.032 80.3506 14.16V13.188ZM83.2306 14.988H81.4546V15.792H83.2306V21.324H84.1666V11.364H83.2306V14.988ZM85.3906 11.112V21.876H86.3386V11.112H85.3906Z" fill="#FF0000"/>
<rect x="0.5" y="0.5" width="99" height="31" rx="7.5" stroke="#FF0000"/>
</svg>
