<?xml version="1.0" encoding="UTF-8"?><svg id="Layer_1" xmlns="http://www.w3.org/2000/svg" width="40" height="72" viewBox="0 0 23.83 43.58"><defs><style>.cls-1{fill:#fdc613;}.cls-2{fill:#fff;}.cls-3{fill:#c7341d;opacity:.73;}.cls-4{fill:#a3949a;}.cls-5{fill:#e84729;}.cls-6{opacity:.45;}.cls-7{fill:#b4b3b9;}.cls-8{opacity:.4;}.cls-9{fill:#e1e1e2;}</style></defs><g><polygon class="cls-5" points="23.83 0 17.75 18 17.15 19.78 6.69 19.78 7.29 18 12.52 2.54 13.37 0 23.83 0"/><polygon class="cls-1" points="21.38 0 14.69 19.78 15.66 19.78 22.35 0 21.38 0"/><polygon class="cls-1" points="14.86 0 8.17 19.78 9.14 19.78 15.83 0 14.86 0"/><path class="cls-7" d="M11.92,30.32c-1.72,0-3.12-2.27-3.12-5.06s1.4-4.91,3.12-4.91,3.12,2.12,3.12,4.91-1.4,5.06-3.12,5.06Zm0-8.89c-1.21,0-2.2,1.68-2.2,3.83s.99,3.89,2.2,3.89,2.2-1.75,2.2-3.89-.99-3.83-2.2-3.83Z"/><path class="cls-7" d="M17.24,21.43H6.6c-.55,0-.99-.45-.99-.99v-1.72c0-.55,.45-.99,.99-.99h10.64c.55,0,.99,.45,.99,.99v1.72c0,.55-.45,.99-.99,.99Zm-10.55-1.09h10.46v-1.53H6.69v1.53Z"/><polygon class="cls-3" points="17.15 19.78 7.89 19.78 7.29 18 12.52 2.54 17.15 19.78"/><polygon class="cls-5" points="10.46 0 17.15 19.78 6.69 19.78 0 0 10.46 0"/><polygon class="cls-1" points="2.45 0 9.14 19.78 8.17 19.78 1.49 0 2.45 0"/><polygon class="cls-1" points="8.97 0 15.66 19.78 14.69 19.78 8 0 8.97 0"/></g><g><path class="cls-9" d="M22.52,32.97c0,5.86-4.75,10.6-10.61,10.6-2.29,0-4.41-.73-6.15-1.96-.85-.61-1.61-1.33-2.24-2.16-.38-.49-.72-1.02-1.01-1.58-.38-.73-.68-1.52-.89-2.34-.21-.82-.31-1.68-.31-2.56,0-4.93,3.37-9.08,7.93-10.26,.79-.21,1.63-.32,2.48-.34,.06,0,.13,0,.19,0,.57,0,1.13,.04,1.68,.13,1.05,.17,2.04,.49,2.97,.94,3.53,1.72,5.96,5.34,5.96,9.53Z"/><circle class="cls-7" cx="11.92" cy="32.97" r="8.84"/><circle class="cls-4" cx="12.33" cy="33.37" r="7.69"/><circle class="cls-9" cx="11.92" cy="32.97" r="7.69"/><g class="cls-6"><path class="cls-2" d="M11.72,22.37L2.51,37.88c-.38-.73-.68-1.52-.89-2.34l7.62-12.83c.79-.21,1.63-.32,2.48-.34Z"/></g><g class="cls-8"><path class="cls-2" d="M16.57,23.44L5.77,41.62c-.85-.61-1.61-1.33-2.24-2.16L13.6,22.5c1.05,.17,2.04,.49,2.97,.94Z"/></g></g></svg>