<svg width="98" height="32" viewBox="0 0 98 32" fill="none" xmlns="http://www.w3.org/2000/svg">
<path d="M18 21.334H24" stroke="#777777" stroke-width="1.5" stroke-linecap="round" stroke-linejoin="round"/>
<path d="M21 10.3341C21.2652 10.0689 21.6249 9.91992 22 9.91992C22.1857 9.91992 22.3696 9.9565 22.5412 10.0276C22.7128 10.0986 22.8687 10.2028 23 10.3341C23.1313 10.4655 23.2355 10.6214 23.3066 10.7929C23.3776 10.9645 23.4142 11.1484 23.4142 11.3341C23.4142 11.5199 23.3776 11.7038 23.3066 11.8753C23.2355 12.0469 23.1313 12.2028 23 12.3341L14.6667 20.6675L12 21.3341L12.6667 18.6675L21 10.3341Z" stroke="#777777" stroke-width="1.5" stroke-linecap="round" stroke-linejoin="round"/>
<path d="M37.0023 15.528H35.1423C35.5023 14.568 35.6583 13.548 35.6583 12.492H31.5063V13.296H34.6863C34.5063 15.552 33.3543 17.484 31.0503 18.864L31.6263 19.572C33.1143 18.684 34.1463 17.568 34.7943 16.32H37.0023V21.348H37.9383V11.412H37.0023V15.528ZM39.2463 11.124V21.888H40.1823V11.124H39.2463ZM45.8934 12.06H44.9214V13.992C44.9214 16.032 43.6134 18.096 42.0294 18.852L42.6294 19.656C43.8894 19.008 44.9214 17.664 45.4134 16.044C45.9294 17.58 46.9614 18.852 48.1854 19.452L48.7734 18.66C47.1774 17.94 45.8934 15.96 45.8934 13.992V12.06ZM49.9014 11.124V21.912H50.8854V11.124H49.9014ZM55.2765 19.716H61.6605V17.004H54.2685V17.784H60.6765V18.972H54.3045V21.756H61.9245V20.976H55.2765V19.716ZM61.3845 15.132C61.6245 13.92 61.6245 12.996 61.6245 12.264V11.58H54.3645V12.372H60.6525C60.6525 13.08 60.6405 13.944 60.4005 15.132H53.1165V15.924H62.8845V15.132H61.3845ZM73.4195 15.228C71.4635 14.94 69.5435 13.608 69.5435 12.108V11.508H68.5115V12.108C68.5115 13.644 66.6155 14.94 64.6595 15.228L65.0555 16.02C66.7355 15.732 68.3555 14.808 69.0275 13.5C69.7235 14.796 71.3435 15.732 73.0115 16.02L73.4195 15.228ZM73.8875 17.184H64.1675V18H68.5115V21.9H69.4955V18H73.8995L73.8875 17.184ZM80.9426 13.92V14.724H83.0666V17.544H84.0626V11.136H83.0666V13.92H80.9426ZM81.5426 16.368C79.9826 15.816 78.9266 14.46 78.9266 13.08V12.708H81.2906V11.916H75.5426V12.708H77.9426V13.08C77.9426 14.628 76.8386 16.08 75.2306 16.668L75.7466 17.448C77.0066 16.968 78.0026 15.96 78.4586 14.712C78.9266 15.816 79.8506 16.704 81.0506 17.136L81.5426 16.368ZM80.5106 21.12C78.8906 21.12 77.9066 20.664 77.9066 19.884C77.9066 19.104 78.8906 18.636 80.5106 18.636C82.1306 18.636 83.1146 19.104 83.1146 19.884C83.1146 20.664 82.1306 21.12 80.5106 21.12ZM80.5106 17.88C78.3026 17.88 76.9226 18.612 76.9226 19.884C76.9226 21.156 78.3026 21.888 80.5106 21.888C82.7186 21.888 84.0986 21.156 84.0986 19.884C84.0986 18.612 82.7186 17.88 80.5106 17.88Z" fill="#777777"/>
<rect x="0.5" y="0.5" width="97" height="31" rx="7.5" stroke="#777777"/>
</svg>
