<svg width="40" height="40" viewBox="0 0 40 40" fill="none" xmlns="http://www.w3.org/2000/svg">
<path d="M20.0001 0C16.1211 0.00737006 12.3279 1.14262 9.08256 3.26748C5.83725 5.39233 3.27989 8.41508 1.72198 11.9675C0.164071 15.52 -0.32715 19.4488 0.30815 23.2755C0.943451 27.1022 2.67785 30.6615 5.3001 33.52V33.52C7.17294 35.5501 9.44598 37.1703 11.976 38.2784C14.506 39.3866 17.2381 39.9587 20.0001 39.9587C22.7621 39.9587 25.4942 39.3866 28.0242 38.2784C30.5542 37.1703 32.8273 35.5501 34.7001 33.52V33.52C37.3223 30.6615 39.0567 27.1022 39.692 23.2755C40.3273 19.4488 39.8361 15.52 38.2782 11.9675C36.7203 8.41508 34.1629 5.39233 30.9176 3.26748C27.6723 1.14262 23.8791 0.00737006 20.0001 0V0ZM20.0001 36C15.857 35.9937 11.8779 34.3806 8.9001 31.5C9.80418 29.2991 11.3422 27.4166 13.3186 26.0918C15.295 24.767 17.6207 24.0596 20.0001 24.0596C22.3795 24.0596 24.7052 24.767 26.6816 26.0918C28.658 27.4166 30.196 29.2991 31.1001 31.5C28.1223 34.3806 24.1432 35.9937 20.0001 36ZM16.0001 16C16.0001 15.2089 16.2347 14.4355 16.6742 13.7777C17.1137 13.1199 17.7385 12.6072 18.4694 12.3045C19.2003 12.0017 20.0045 11.9225 20.7805 12.0769C21.5564 12.2312 22.2691 12.6122 22.8285 13.1716C23.3879 13.731 23.7689 14.4437 23.9232 15.2196C24.0776 15.9956 23.9984 16.7998 23.6956 17.5307C23.3929 18.2616 22.8802 18.8864 22.2224 19.3259C21.5646 19.7654 20.7912 20 20.0001 20C18.9392 20 17.9218 19.5786 17.1717 18.8284C16.4215 18.0783 16.0001 17.0609 16.0001 16ZM33.8201 28C32.0332 24.9435 29.2829 22.5661 26.0001 21.24C27.0184 20.0853 27.682 18.6613 27.911 17.1389C28.1401 15.6164 27.925 14.0602 27.2916 12.657C26.6582 11.2538 25.6333 10.0631 24.3399 9.22793C23.0466 8.39274 21.5397 7.9485 20.0001 7.9485C18.4605 7.9485 16.9536 8.39274 15.6603 9.22793C14.3669 10.0631 13.342 11.2538 12.7086 12.657C12.0752 14.0602 11.8601 15.6164 12.0892 17.1389C12.3182 18.6613 12.9818 20.0853 14.0001 21.24C10.7173 22.5661 7.96704 24.9435 6.1801 28C4.75599 25.5742 4.00354 22.8129 4.0001 20C4.0001 15.7565 5.68581 11.6869 8.68639 8.68629C11.687 5.68571 15.7566 4 20.0001 4C24.2436 4 28.3132 5.68571 31.3138 8.68629C34.3144 11.6869 36.0001 15.7565 36.0001 20C35.9967 22.8129 35.2442 25.5742 33.8201 28V28Z" fill="#FFB673"/>
</svg>
