<svg width="40" height="40" viewBox="0 0 40 40" fill="none" xmlns="http://www.w3.org/2000/svg">
<g filter="url(#filter0_d_694_2401)">
<ellipse cx="22.11" cy="19.2791" rx="13.65" ry="13.6111" fill="url(#paint0_linear_694_2401)"/>
<ellipse cx="22.1098" cy="19.2797" rx="11.31" ry="11.2778" fill="url(#paint1_linear_694_2401)"/>
<ellipse cx="22.11" cy="19.2791" rx="13.65" ry="13.6111" fill="#FF9255"/>
<ellipse cx="22.1098" cy="19.2797" rx="11.31" ry="11.2778" fill="url(#paint2_linear_694_2401)"/>
<mask id="mask0_694_2401" style="mask-type:alpha" maskUnits="userSpaceOnUse" x="8" y="5" width="28" height="28">
<ellipse cx="22.11" cy="19.2791" rx="13.65" ry="13.6111" fill="url(#paint3_linear_694_2401)"/>
</mask>
<g mask="url(#mask0_694_2401)">
<path d="M25.0349 20.456C32.3669 11.9005 39.6599 11.706 42.3899 12.6782L46.8749 16.956L42.9749 35.4282L14.6999 44.1783L-1.0951 36.9838L-2.8501 19.8727C3.3899 23.632 17.7029 29.0116 25.0349 20.456Z" fill="url(#paint4_linear_694_2401)"/>
<path d="M20.94 19.2732C4.87329 9.55768 0.140192 12.5114 -2.29296 14.0827L-5.67299 19.2732L2.37674 36.3587L31.9112 38.4006L45.6273 27.7817L43.3949 10.7259C38.1874 15.8136 31.1696 25.4589 20.94 19.2732Z" fill="url(#paint5_linear_694_2401)"/>
</g>
</g>
<defs>
<filter id="filter0_d_694_2401" x="0.459961" y="0.667969" width="39.2998" height="39.2227" filterUnits="userSpaceOnUse" color-interpolation-filters="sRGB">
<feFlood flood-opacity="0" result="BackgroundImageFix"/>
<feColorMatrix in="SourceAlpha" type="matrix" values="0 0 0 0 0 0 0 0 0 0 0 0 0 0 0 0 0 0 127 0" result="hardAlpha"/>
<feOffset dx="-2" dy="1"/>
<feGaussianBlur stdDeviation="3"/>
<feColorMatrix type="matrix" values="0 0 0 0 0 0 0 0 0 0 0 0 0 0 0 0 0 0 0.25 0"/>
<feBlend mode="normal" in2="BackgroundImageFix" result="effect1_dropShadow_694_2401"/>
<feBlend mode="normal" in="SourceGraphic" in2="effect1_dropShadow_694_2401" result="shape"/>
</filter>
<linearGradient id="paint0_linear_694_2401" x1="22.11" y1="5.66797" x2="22.11" y2="32.8902" gradientUnits="userSpaceOnUse">
<stop stop-color="#FFC123"/>
<stop offset="1" stop-color="#F8832E"/>
</linearGradient>
<linearGradient id="paint1_linear_694_2401" x1="22.1098" y1="8.00195" x2="22.1098" y2="30.5575" gradientUnits="userSpaceOnUse">
<stop stop-color="#FFBF24"/>
<stop offset="1" stop-color="#F4924B"/>
</linearGradient>
<linearGradient id="paint2_linear_694_2401" x1="22.1098" y1="8.00195" x2="22.1098" y2="30.5575" gradientUnits="userSpaceOnUse">
<stop stop-color="#FFBF24"/>
<stop offset="1" stop-color="#F4924B"/>
</linearGradient>
<linearGradient id="paint3_linear_694_2401" x1="22.11" y1="5.66797" x2="22.11" y2="32.8902" gradientUnits="userSpaceOnUse">
<stop stop-color="#FFC123"/>
<stop offset="1" stop-color="#F8832E"/>
</linearGradient>
<linearGradient id="paint4_linear_694_2401" x1="22.0124" y1="12.2793" x2="22.0124" y2="44.1782" gradientUnits="userSpaceOnUse">
<stop stop-color="#FF9D55" stop-opacity="0.6"/>
<stop offset="1" stop-color="#FD8A37" stop-opacity="0"/>
</linearGradient>
<linearGradient id="paint5_linear_694_2401" x1="17.4481" y1="9.02844" x2="24.7545" y2="40.0843" gradientUnits="userSpaceOnUse">
<stop stop-color="#FFBD3E" stop-opacity="0.49"/>
<stop offset="1" stop-color="white" stop-opacity="0"/>
</linearGradient>
</defs>
</svg>
