<svg width="78" height="35" viewBox="0 0 78 35" fill="none" xmlns="http://www.w3.org/2000/svg">
<g filter="url(#filter0_i_694_2428)">
<rect width="78" height="35" rx="17.5" fill="url(#paint0_linear_694_2428)"/>
</g>
<path d="M44.3206 10.0666C44.5105 9.79527 44.9319 9.86933 45.0173 10.1891L45.3192 11.3193C45.3539 11.4493 45.4536 11.5522 45.5826 11.5913L46.7049 11.9315C47.0225 12.0277 47.082 12.4502 46.8034 12.63L45.8187 13.2656C45.7055 13.3387 45.6381 13.465 45.6407 13.5995L45.6631 14.769C45.6694 15.0998 45.2849 15.2869 45.0273 15.0782L44.1168 14.3408C44.0121 14.256 43.8708 14.2311 43.7433 14.2751L42.6348 14.6577C42.3213 14.766 42.024 14.4591 42.1434 14.1503L42.5654 13.059C42.6139 12.9335 42.594 12.7918 42.5126 12.6845L41.8051 11.7515C41.605 11.4876 41.8059 11.1109 42.1372 11.1287L43.3085 11.1916C43.4432 11.1989 43.5722 11.1362 43.6494 11.0259L44.3206 10.0666Z" fill="url(#paint1_linear_694_2428)"/>
<path d="M35.4704 4.81745C35.5167 4.75131 35.6194 4.76936 35.6402 4.84729L35.7138 5.12277C35.7223 5.15445 35.7466 5.17953 35.778 5.18906L36.0516 5.27197C36.1289 5.29542 36.1435 5.3984 36.0756 5.44222L35.8356 5.59713C35.808 5.61495 35.7915 5.64572 35.7922 5.67851L35.7976 5.96353C35.7992 6.04417 35.7054 6.08976 35.6427 6.03891L35.4208 5.85917C35.3952 5.8385 35.3608 5.83245 35.3297 5.84318L35.0596 5.93643C34.9831 5.96281 34.9107 5.88801 34.9398 5.81276L35.0426 5.54677C35.0545 5.51617 35.0496 5.48166 35.0298 5.4555L34.8573 5.22811C34.8086 5.16378 34.8575 5.07196 34.9383 5.0763L35.2238 5.09164C35.2566 5.09341 35.288 5.07813 35.3068 5.05124L35.4704 4.81745Z" fill="url(#paint2_linear_694_2428)"/>
<path d="M55.5552 12.8916C55.6031 12.6968 55.8576 12.6468 55.9759 12.809L56.3943 13.3821C56.4424 13.4481 56.5213 13.4845 56.6029 13.4785L57.3119 13.4262C57.5125 13.4114 57.6388 13.6373 57.5207 13.7996L57.1033 14.3735C57.0553 14.4396 57.0449 14.5256 57.0758 14.6011L57.3448 15.2573C57.4209 15.443 57.2445 15.6325 57.0532 15.5707L56.3768 15.3523C56.299 15.3271 56.2137 15.3439 56.1513 15.3965L55.6085 15.8544C55.455 15.9839 55.2196 15.8752 55.2195 15.6747L55.2188 14.9657C55.2188 14.8842 55.1764 14.8085 55.1069 14.7656L54.5025 14.3923C54.3315 14.2867 54.3625 14.0299 54.5537 13.9678L55.2297 13.7481C55.3074 13.7229 55.3665 13.6593 55.386 13.5801L55.5552 12.8916Z" fill="url(#paint3_linear_694_2428)"/>
<path d="M63.5738 8.32436C63.6007 8.21526 63.7432 8.18728 63.8095 8.27809L64.0438 8.59911C64.0708 8.63603 64.1149 8.65644 64.1606 8.65307L64.5577 8.62379C64.67 8.6155 64.7408 8.742 64.6746 8.83294L64.4409 9.15436C64.414 9.19133 64.4082 9.23953 64.4255 9.28181L64.5761 9.64935C64.6188 9.75333 64.52 9.85949 64.4128 9.82488L64.034 9.70251C63.9904 9.68844 63.9427 9.69782 63.9077 9.72732L63.6037 9.98375C63.5177 10.0563 63.3859 9.99541 63.3858 9.88308L63.3854 9.48603C63.3854 9.44036 63.3617 9.39796 63.3228 9.37392L62.9842 9.16486C62.8885 9.10572 62.9058 8.96192 63.0129 8.92712L63.3915 8.80409C63.4351 8.78994 63.4682 8.75435 63.4791 8.71L63.5738 8.32436Z" fill="url(#paint4_linear_694_2428)"/>
<path d="M51.6429 3.83548C51.7725 3.78014 51.9077 3.90115 51.8665 4.03555L51.721 4.51063C51.7042 4.56527 51.717 4.62466 51.7547 4.66766L52.0828 5.04148C52.1756 5.14724 52.102 5.3129 51.9611 5.31538L51.463 5.32415C51.4057 5.32516 51.353 5.35562 51.3237 5.40469L51.0685 5.83135C50.9963 5.95205 50.8156 5.93342 50.7696 5.80055L50.6074 5.33089C50.5887 5.27687 50.5434 5.23631 50.4875 5.22364L50.0017 5.11351C49.8643 5.08235 49.8262 4.90517 49.9387 4.82057L50.3365 4.52154C50.3823 4.48714 50.407 4.43161 50.4018 4.37471L50.3567 3.87999C50.344 3.74003 50.5012 3.64915 50.6166 3.72974L51.0248 4.01459C51.0717 4.04735 51.1323 4.05359 51.185 4.03109L51.6429 3.83548Z" fill="url(#paint5_linear_694_2428)"/>
<defs>
<filter id="filter0_i_694_2428" x="0" y="0" width="78" height="41" filterUnits="userSpaceOnUse" color-interpolation-filters="sRGB">
<feFlood flood-opacity="0" result="BackgroundImageFix"/>
<feBlend mode="normal" in="SourceGraphic" in2="BackgroundImageFix" result="shape"/>
<feColorMatrix in="SourceAlpha" type="matrix" values="0 0 0 0 0 0 0 0 0 0 0 0 0 0 0 0 0 0 127 0" result="hardAlpha"/>
<feMorphology radius="3" operator="erode" in="SourceAlpha" result="effect1_innerShadow_694_2428"/>
<feOffset dy="6"/>
<feGaussianBlur stdDeviation="4"/>
<feComposite in2="hardAlpha" operator="arithmetic" k2="-1" k3="1"/>
<feColorMatrix type="matrix" values="0 0 0 0 0 0 0 0 0 0 0 0 0 0 0 0 0 0 0.25 0"/>
<feBlend mode="normal" in2="shape" result="effect1_innerShadow_694_2428"/>
</filter>
<linearGradient id="paint0_linear_694_2428" x1="39.975" y1="1.36111" x2="39.0055" y2="35.0002" gradientUnits="userSpaceOnUse">
<stop stop-color="#2B4485"/>
<stop offset="1" stop-color="#AFCAFF"/>
</linearGradient>
<linearGradient id="paint1_linear_694_2428" x1="44.8012" y1="9.37991" x2="43.6566" y2="15.8918" gradientUnits="userSpaceOnUse">
<stop stop-color="#ADDDFF"/>
<stop offset="1" stop-color="#EDF6FF" stop-opacity="0"/>
</linearGradient>
<linearGradient id="paint2_linear_694_2428" x1="35.5876" y1="4.65008" x2="35.3086" y2="6.23719" gradientUnits="userSpaceOnUse">
<stop stop-color="#ADDDFF"/>
<stop offset="1" stop-color="#EDF6FF" stop-opacity="0"/>
</linearGradient>
<linearGradient id="paint3_linear_694_2428" x1="55.6764" y1="12.3986" x2="56.4485" y2="16.3309" gradientUnits="userSpaceOnUse">
<stop stop-color="#ADDDFF"/>
<stop offset="1" stop-color="#EDF6FF" stop-opacity="0"/>
</linearGradient>
<linearGradient id="paint4_linear_694_2428" x1="63.6417" y1="8.04827" x2="64.0742" y2="10.2506" gradientUnits="userSpaceOnUse">
<stop stop-color="#ADDDFF"/>
<stop offset="1" stop-color="#EDF6FF" stop-opacity="0"/>
</linearGradient>
<linearGradient id="paint5_linear_694_2428" x1="51.9707" y1="3.69543" x2="50.0963" y2="5.79061" gradientUnits="userSpaceOnUse">
<stop stop-color="#ADDDFF"/>
<stop offset="1" stop-color="#EDF6FF" stop-opacity="0"/>
</linearGradient>
</defs>
</svg>
