<svg width="78" height="35" viewBox="0 0 78 35" fill="none" xmlns="http://www.w3.org/2000/svg">
<g filter="url(#filter0_i_694_2400)">
<rect width="78" height="35" rx="17.5" fill="url(#paint0_linear_694_2400)"/>
</g>
<path fill-rule="evenodd" clip-rule="evenodd" d="M18.1207 14.1398C17.398 14.7787 16.447 15.1667 15.4052 15.1667C14.1758 15.1667 13.0729 14.6264 12.3223 13.7711C12.016 13.9178 11.6727 14 11.3102 14C10.0179 14 8.97021 12.9553 8.97021 11.6667C8.97021 10.378 10.0179 9.33333 11.3102 9.33333C11.4395 9.33333 11.5663 9.34379 11.6899 9.36389C12.3407 7.96789 13.7596 7 15.4052 7C16.7406 7 17.9266 7.63734 18.6742 8.62361C18.8774 8.57905 19.0886 8.55556 19.3052 8.55556C20.9206 8.55556 22.2302 9.86139 22.2302 11.4722C22.2302 13.0831 20.9206 14.3889 19.3052 14.3889C18.8836 14.3889 18.4828 14.2999 18.1207 14.1398Z" fill="url(#paint1_linear_694_2400)"/>
<path fill-rule="evenodd" clip-rule="evenodd" d="M38.3844 8.44592C38.0018 8.78417 37.4983 8.98955 36.9468 8.98955C36.2959 8.98955 35.7121 8.70354 35.3147 8.25069C35.1525 8.32837 34.9708 8.3719 34.7789 8.3719C34.0947 8.3719 33.54 7.81884 33.54 7.1366C33.54 6.45437 34.0947 5.90131 34.7789 5.90131C34.8473 5.90131 34.9144 5.90685 34.9799 5.91749C35.3244 5.17843 36.0756 4.66602 36.9468 4.66602C37.6538 4.66602 38.2817 5.00344 38.6774 5.52558C38.785 5.50199 38.8968 5.48955 39.0115 5.48955C39.8667 5.48955 40.56 6.18087 40.56 7.03366C40.56 7.88646 39.8667 8.57778 39.0115 8.57778C38.7883 8.57778 38.5761 8.53068 38.3844 8.44592Z" fill="url(#paint2_linear_694_2400)"/>
<path fill-rule="evenodd" clip-rule="evenodd" d="M36.7857 17.5459C36.1905 18.072 35.4074 18.3915 34.5494 18.3915C33.5369 18.3915 32.6287 17.9466 32.0105 17.2422C31.7583 17.363 31.4756 17.4307 31.1771 17.4307C30.1128 17.4307 29.25 16.5704 29.25 15.5091C29.25 14.4479 30.1128 13.5876 31.1771 13.5876C31.2835 13.5876 31.388 13.5962 31.4897 13.6127C32.0257 12.4631 33.1942 11.666 34.5494 11.666C35.6491 11.666 36.6259 12.1909 37.2415 13.0031C37.4089 12.9664 37.5828 12.9471 37.7612 12.9471C39.0915 12.9471 40.17 14.0225 40.17 15.349C40.17 16.6756 39.0915 17.751 37.7612 17.751C37.414 17.751 37.0839 17.6777 36.7857 17.5459Z" fill="url(#paint3_linear_694_2400)"/>
<defs>
<filter id="filter0_i_694_2400" x="0" y="0" width="78" height="41" filterUnits="userSpaceOnUse" color-interpolation-filters="sRGB">
<feFlood flood-opacity="0" result="BackgroundImageFix"/>
<feBlend mode="normal" in="SourceGraphic" in2="BackgroundImageFix" result="shape"/>
<feColorMatrix in="SourceAlpha" type="matrix" values="0 0 0 0 0 0 0 0 0 0 0 0 0 0 0 0 0 0 127 0" result="hardAlpha"/>
<feMorphology radius="3" operator="erode" in="SourceAlpha" result="effect1_innerShadow_694_2400"/>
<feOffset dy="6"/>
<feGaussianBlur stdDeviation="4"/>
<feComposite in2="hardAlpha" operator="arithmetic" k2="-1" k3="1"/>
<feColorMatrix type="matrix" values="0 0 0 0 0 0 0 0 0 0 0 0 0 0 0 0 0 0 0.25 0"/>
<feBlend mode="normal" in2="shape" result="effect1_innerShadow_694_2400"/>
</filter>
<linearGradient id="paint0_linear_694_2400" x1="39" y1="0" x2="39" y2="35" gradientUnits="userSpaceOnUse">
<stop stop-color="#66FFED"/>
<stop offset="1" stop-color="#FFEEB2"/>
</linearGradient>
<linearGradient id="paint1_linear_694_2400" x1="15.6002" y1="7" x2="15.6002" y2="15.1667" gradientUnits="userSpaceOnUse">
<stop stop-color="#FFF48F"/>
<stop offset="1" stop-color="#FFFEEA" stop-opacity="0"/>
</linearGradient>
<linearGradient id="paint2_linear_694_2400" x1="37.05" y1="4.66602" x2="37.05" y2="8.98955" gradientUnits="userSpaceOnUse">
<stop stop-color="#FFF48F"/>
<stop offset="1" stop-color="#FFFEEA" stop-opacity="0"/>
</linearGradient>
<linearGradient id="paint3_linear_694_2400" x1="34.71" y1="11.666" x2="34.71" y2="18.3915" gradientUnits="userSpaceOnUse">
<stop stop-color="#FFF48F"/>
<stop offset="1" stop-color="#FFFEEA" stop-opacity="0"/>
</linearGradient>
</defs>
</svg>
