<svg width="16" height="16" viewBox="0 0 16 16" fill="none" xmlns="http://www.w3.org/2000/svg">
<path d="M10.6668 1.33398H5.3335C4.80307 1.33398 4.29436 1.5447 3.91929 1.91977C3.54422 2.29484 3.3335 2.80355 3.3335 3.33398V14.0007C3.33303 14.1181 3.36362 14.2336 3.42215 14.3355C3.48069 14.4373 3.5651 14.5219 3.66683 14.5807C3.76818 14.6392 3.88314 14.67 4.00017 14.67C4.11719 14.67 4.23216 14.6392 4.3335 14.5807L8.00017 12.4607L11.6668 14.5807C11.7684 14.6382 11.8834 14.6681 12.0002 14.6673C12.117 14.6681 12.2319 14.6382 12.3335 14.5807C12.4352 14.5219 12.5196 14.4373 12.5782 14.3355C12.6367 14.2336 12.6673 14.1181 12.6668 14.0007V3.33398C12.6668 2.80355 12.4561 2.29484 12.081 1.91977C11.706 1.5447 11.1973 1.33398 10.6668 1.33398ZM11.3335 12.8473L8.3335 11.114C8.23216 11.0555 8.11719 11.0247 8.00017 11.0247C7.88314 11.0247 7.76818 11.0555 7.66683 11.114L4.66683 12.8473V3.33398C4.66683 3.15717 4.73707 2.9876 4.8621 2.86258C4.98712 2.73756 5.15669 2.66732 5.3335 2.66732H10.6668C10.8436 2.66732 11.0132 2.73756 11.1382 2.86258C11.2633 2.9876 11.3335 3.15717 11.3335 3.33398V12.8473Z" fill="#777777"/>
</svg>
