<svg width="152" height="36" viewBox="0 0 152 36" fill="none" xmlns="http://www.w3.org/2000/svg">
<path d="M36.16 35.4H28.8V19.56H26.4V35.08H19.12V0.199997H26.4V12.4H28.8V0.079999H36.16V35.4ZM0.96 29.68C2.24 27.68 3.44 25.68 4.56 23.68C5.70667 21.6533 6.81333 19.6133 7.88 17.56C8.25333 16.8133 8.58667 15.9867 8.88 15.08C9.17333 14.1733 9.32 13.2533 9.32 12.32V7.6H1.96V0.879998H16.8V12.28C16.8 13.6667 16.64 14.9867 16.32 16.24C16.0267 17.4933 15.6667 18.5333 15.24 19.36C14.04 21.7333 12.7467 24.1067 11.36 26.48C10 28.8267 8.57333 31.1467 7.08 33.44L0.96 29.68ZM72.4078 35.32H42.2078V24.32H64.1678V23.12H42.2078V18H72.0078V28.88H50.0478V30.12H72.4078V35.32ZM61.0478 16.48H39.9678V0.279999H47.8078V3.12H53.2078V0.279999H61.0478V16.48ZM72.0078 16.96H64.1678V0.079999H72.0078V5.04H75.9278V11.44H72.0078V16.96ZM53.2078 11V8.52H47.8078V11H53.2078ZM98.6556 33.12H77.7756V0.479999H85.6156V10.88H90.8156V0.479999H98.6556V33.12ZM109.216 35.4H101.376V0.079999H109.216V12.4H114.016V19.56H109.216V35.4ZM90.8156 26.52V17.4H85.6156V26.52H90.8156ZM138.583 19.08H116.183V0.479999H137.063V7.08H124.023V12.48H138.583V19.08ZM148.023 35.6H140.183V27.64H118.223V21.08H148.023V35.6ZM148.023 19.88H140.183V0.079999H148.023V6.4H151.943V13.12H148.023V19.88Z" fill="black"/>
</svg>
