<svg width="25" height="25" viewBox="0 0 25 25" fill="none" xmlns="http://www.w3.org/2000/svg">
<path d="M23.8112 11.7496L20.5491 9.85668C20.8348 9.60667 21.1086 9.28523 21.311 8.92808C22.2992 7.22564 21.7158 5.0351 20.0014 4.04697C18.9775 3.45172 17.775 3.45172 16.7631 3.8803L16.775 3.8684L15.7273 4.3327L15.5963 3.1898L15.5844 3.20171C15.4773 2.11834 14.8463 1.07069 13.8224 0.475435C12.108 -0.506738 9.92926 0.0825659 8.92919 1.785C8.7268 2.14215 8.59584 2.53502 8.5244 2.91599L5.25037 1.03498C4.10743 0.380194 2.65495 0.761158 2.00014 1.90405L0.214301 4.99938C-0.119056 5.57083 0.0833391 6.29704 0.654807 6.61848L2.71448 7.80899L7.73863 10.7138H0V22.619C0 23.9404 1.0715 25 2.38112 25H21.4301C22.7516 25 23.8112 23.9404 23.8112 22.619V16.5116L24.6803 14.9997C25.3351 13.8568 24.9541 12.4044 23.8112 11.7496ZM17.1917 6.54705C17.5131 5.95179 18.2513 5.78512 18.8108 6.10656C19.3823 6.43991 19.5847 7.14231 19.2513 7.73756C18.918 8.33282 18.1917 8.49949 17.6203 8.17805C17.0607 7.84471 16.8583 7.14231 17.1917 6.54705ZM14.37 9.04713L22.6206 13.8092L21.4301 15.8688L13.1795 11.1067L14.37 9.04713ZM10.715 22.619H2.38112V13.0949H10.715V22.619ZM11.1198 9.9162L2.86925 5.15415L4.05981 3.09456L12.3104 7.85662L11.1198 9.9162ZM11.4413 4.60651C10.8698 4.27317 10.6793 3.57077 11.0008 2.97551C11.3103 2.38026 12.0604 2.21358 12.6318 2.53502C13.2033 2.86837 13.3938 3.57077 13.0604 4.16603C12.739 4.76128 12.0127 4.92795 11.4413 4.60651ZM13.0962 22.619V13.8092L21.4301 18.6189V22.619H13.0962Z" fill="current"/>
</svg>
