<svg width="46" height="46" viewBox="0 0 46 46" fill="none" xmlns="http://www.w3.org/2000/svg">
<g filter="url(#filter0_d_1284_2630)">
<rect x="8" y="5" width="34" height="34" rx="17" fill="#FFA553"/>
</g>
<path d="M25 31V33" stroke="#444449" stroke-width="2" stroke-linecap="round" stroke-linejoin="round"/>
<path d="M31.3599 28.3594L32.7799 29.7794" stroke="#444449" stroke-width="2" stroke-linecap="round" stroke-linejoin="round"/>
<path d="M17.2202 29.7794L18.6402 28.3594" stroke="#444449" stroke-width="2" stroke-linecap="round" stroke-linejoin="round"/>
<path d="M34 22H36" stroke="#444449" stroke-width="2" stroke-linecap="round" stroke-linejoin="round"/>
<path d="M14 22H16" stroke="#444449" stroke-width="2" stroke-linecap="round" stroke-linejoin="round"/>
<path d="M25 27C27.7614 27 30 24.7614 30 22C30 19.2386 27.7614 17 25 17C22.2386 17 20 19.2386 20 22C20 24.7614 22.2386 27 25 27Z" stroke="#444449" stroke-width="2" stroke-linecap="round" stroke-linejoin="round"/>
<path d="M31.3599 15.6388L32.7799 14.2188" stroke="#444449" stroke-width="2" stroke-linecap="round" stroke-linejoin="round"/>
<path d="M17.2202 14.2188L18.6402 15.6388" stroke="#444449" stroke-width="2" stroke-linecap="round" stroke-linejoin="round"/>
<path d="M25 11V13" stroke="#444449" stroke-width="2" stroke-linecap="round" stroke-linejoin="round"/>
<defs>
<filter id="filter0_d_1284_2630" x="0" y="0" width="46" height="46" filterUnits="userSpaceOnUse" color-interpolation-filters="sRGB">
<feFlood flood-opacity="0" result="BackgroundImageFix"/>
<feColorMatrix in="SourceAlpha" type="matrix" values="0 0 0 0 0 0 0 0 0 0 0 0 0 0 0 0 0 0 127 0" result="hardAlpha"/>
<feOffset dx="-2" dy="1"/>
<feGaussianBlur stdDeviation="3"/>
<feComposite in2="hardAlpha" operator="out"/>
<feColorMatrix type="matrix" values="0 0 0 0 0 0 0 0 0 0 0 0 0 0 0 0 0 0 0.2 0"/>
<feBlend mode="normal" in2="BackgroundImageFix" result="effect1_dropShadow_1284_2630"/>
<feBlend mode="normal" in="SourceGraphic" in2="effect1_dropShadow_1284_2630" result="shape"/>
</filter>
</defs>
</svg>
