<svg width="20" height="20" viewBox="0 0 20 20" fill="none" xmlns="http://www.w3.org/2000/svg">
<path d="M18.9999 10.79C18.8426 12.4922 18.2038 14.1144 17.1581 15.4668C16.1125 16.8192 14.7034 17.8458 13.0956 18.4265C11.4878 19.0073 9.74789 19.1181 8.0794 18.7461C6.41092 18.3741 4.8829 17.5345 3.67413 16.3258C2.46536 15.117 1.62584 13.589 1.25381 11.9205C0.881777 10.252 0.992617 8.51208 1.57336 6.9043C2.15411 5.29651 3.18073 3.88737 4.53311 2.84175C5.8855 1.79614 7.5077 1.15731 9.2099 1C8.21331 2.34827 7.73375 4.00945 7.85843 5.68141C7.98312 7.35338 8.70376 8.92506 9.8893 10.1106C11.0748 11.2961 12.6465 12.0168 14.3185 12.1415C15.9905 12.2662 17.6516 11.7866 18.9999 10.79V10.79Z" stroke="white" stroke-width="2" stroke-linecap="round" stroke-linejoin="round"/>
</svg>
