<svg width="11" height="7" viewBox="0 0 11 7" fill="none" xmlns="http://www.w3.org/2000/svg">
<path d="M0.225954 1.50672C0.268262 1.40517 0.330257 1.313 0.408364 1.23553C0.485833 1.15743 0.578 1.09543 0.67955 1.05312C0.781099 1.01082 0.89002 0.989034 1.00003 0.989034C1.11004 0.989034 1.21896 1.01082 1.32051 1.05312C1.42206 1.09543 1.51423 1.15743 1.5917 1.23553L5.1667 4.81887L8.7417 1.23553C8.81917 1.15743 8.91133 1.09543 9.01288 1.05312C9.11443 1.01082 9.22335 0.989034 9.33336 0.989034C9.44337 0.989034 9.55229 1.01082 9.65384 1.05312C9.75539 1.09543 9.84756 1.15743 9.92503 1.23553C10.0031 1.313 10.0651 1.40517 10.1074 1.50672C10.1497 1.60827 10.1715 1.71719 10.1715 1.8272C10.1715 1.93721 10.1497 2.04613 10.1074 2.14768C10.0651 2.24923 10.0031 2.3414 9.92503 2.41887L5.75836 6.58553C5.68089 6.66364 5.58873 6.72563 5.48718 6.76794C5.38563 6.81025 5.27671 6.83203 5.1667 6.83203C5.05669 6.83203 4.94777 6.81025 4.84622 6.76794C4.74467 6.72563 4.6525 6.66364 4.57503 6.58553L0.408364 2.41887C0.330257 2.3414 0.268262 2.24923 0.225954 2.14768C0.183647 2.04613 0.161865 1.93721 0.161865 1.8272C0.161865 1.71719 0.183647 1.60827 0.225954 1.50672Z" fill="#777777"/>
</svg>
